<?xml version="1.0" standalone="no"?>
<!DOCTYPE svg PUBLIC "-//W3C//DTD SVG 20010904//EN"
 "http://www.w3.org/TR/2001/REC-SVG-20010904/DTD/svg10.dtd">
<svg version="1.0" xmlns="http://www.w3.org/2000/svg"
 width="292.000000pt" height="72.000000pt" viewBox="0 0 292.000000 72.000000"
 preserveAspectRatio="xMidYMid meet">

<g transform="translate(0.000000,72.000000) scale(0.100000,-0.100000)"
fill="#000000" stroke="none">
<path d="M815 458 c-3 -8 -4 -63 -3 -124 2 -89 6 -109 18 -109 11 0 16 14 20
48 3 26 8 47 13 47 4 0 11 0 15 0 5 0 19 -22 32 -50 24 -51 50 -67 50 -30 0
10 -8 35 -17 55 -16 33 -16 36 1 48 23 17 24 83 3 105 -22 21 -125 29 -132 10z
m105 -43 c17 -20 3 -54 -25 -61 -34 -8 -45 2 -45 42 0 31 3 34 29 34 16 0 34
-7 41 -15z"/>
<path d="M1005 457 c-3 -7 -4 -62 -3 -123 l3 -109 73 -3 c58 -2 72 0 72 12 0
11 -14 16 -52 18 l-53 3 0 35 c0 31 3 35 28 38 38 5 36 32 -3 32 -28 0 -30 3
-30 34 l0 35 53 3 c38 2 52 7 52 18 0 21 -133 28 -140 7z"/>
<path d="M1215 458 c-37 -20 -45 -40 -45 -114 0 -57 4 -77 21 -98 39 -49 129
-27 129 32 0 13 -6 22 -15 22 -8 0 -15 -7 -15 -15 0 -8 -9 -19 -19 -25 -25
-13 -27 -13 -45 6 -19 19 -22 134 -4 152 18 18 45 14 62 -9 19 -27 47 -19 39
11 -5 21 -50 50 -75 50 -7 0 -22 -6 -33 -12z"/>
<path d="M1386 449 c-25 -19 -26 -25 -26 -109 0 -80 2 -90 22 -104 31 -22 84
-20 108 4 17 17 20 33 20 100 0 73 -3 83 -25 105 -30 30 -64 32 -99 4z m72
-31 c18 -18 16 -142 -3 -158 -19 -16 -52 -4 -59 23 -9 35 -7 107 4 128 12 21
40 25 58 7z"/>
<path d="M1554 457 c-2 -7 -3 -62 -2 -123 2 -89 6 -109 18 -109 12 0 16 15 18
68 2 37 6 67 10 67 4 0 15 -15 25 -32 l19 -33 28 35 29 35 3 -70 c2 -58 6 -70
21 -73 16 -3 17 6 15 119 -3 141 -13 155 -55 85 -30 -49 -48 -57 -58 -27 -8
26 -44 71 -56 71 -5 0 -12 -6 -15 -13z"/>
<path d="M1786 448 c-8 -30 -8 -192 0 -212 3 -9 12 -16 20 -16 11 0 14 16 14
64 0 74 12 90 35 47 17 -34 37 -33 53 5 20 43 32 27 32 -47 0 -62 2 -70 18
-67 15 3 17 17 20 103 3 113 -2 145 -23 145 -8 0 -26 -20 -41 -45 -14 -25 -30
-45 -34 -45 -4 0 -20 20 -34 45 -29 49 -50 57 -60 23z"/>
<path d="M2027 464 c-4 -4 -7 -61 -7 -126 l0 -118 75 0 c59 0 75 3 75 14 0 11
-15 16 -52 18 l-53 3 -3 38 c-3 36 -2 37 28 37 39 0 36 24 -3 28 -23 3 -27 8
-27 37 0 34 0 34 53 37 38 2 52 7 52 18 0 12 -15 16 -65 18 -36 2 -69 0 -73
-4z"/>
<path d="M2200 346 c0 -105 2 -126 15 -126 12 0 15 14 15 66 0 81 12 81 55 -2
17 -32 38 -60 48 -62 15 -3 17 8 17 122 0 105 -2 126 -15 126 -12 0 -15 -14
-15 -64 0 -36 -4 -67 -8 -70 -4 -2 -24 25 -43 62 -20 37 -43 68 -52 70 -15 3
-17 -10 -17 -122z"/>
<path d="M2400 345 l0 -125 53 0 c82 0 97 19 97 125 0 78 -2 85 -26 104 -19
15 -41 21 -75 21 l-49 0 0 -125z m104 69 c3 -9 6 -45 6 -80 0 -60 -2 -65 -25
-74 -46 -18 -55 -5 -55 79 0 43 3 81 7 84 13 13 61 7 67 -9z"/>
<path d="M2605 356 c-20 -63 -34 -120 -30 -126 11 -18 33 -11 41 13 15 47 67
52 92 7 9 -16 21 -30 25 -30 19 0 15 33 -16 135 -27 93 -36 110 -54 113 -20 3
-26 -8 -58 -112z m82 -9 c5 -35 4 -37 -21 -37 -30 0 -30 1 -15 54 12 45 27 38
36 -17z"/>
</g>
</svg>
